<?xml version="1.0" encoding="utf-8"?>
<!-- Generator: Adobe Illustrator 16.0.0, SVG Export Plug-In . SVG Version: 6.00 Build 0)  -->
<!DOCTYPE svg PUBLIC "-//W3C//DTD SVG 1.1//EN" "http://www.w3.org/Graphics/SVG/1.1/DTD/svg11.dtd">
<svg version="1.1" id="Layer_1" xmlns="http://www.w3.org/2000/svg" xmlns:xlink="http://www.w3.org/1999/xlink" x="0px" y="0px"
	 width="283.5px" height="283.5px" viewBox="0 0 283.5 283.5" style="enable-background:new 0 0 283.5 283.5;" xml:space="preserve"
	>
<style type="text/css">
<![CDATA[
	.st0{fill:#F1592A;stroke:#FFFFFF;stroke-miterlimit:10;}
	.st1{fill:#F7922B;stroke:#FFFFFF;stroke-miterlimit:10;}
]]>
</style>
<path class="st0" d="M8.2,22.9h31.2c0,0,10,1.5,15.7,13.2c0,0,4.7,1.5,1.2,4.7c0,0-9.4,4.4-15,3.2c0,0-2.5-2,0.6-3.4
	c0,0,1.8-1.2-0.4-2.9c0,0-2.8-2.8-6.1-3L8.2,34.3C8.2,34.3-2.4,27.8,8.2,22.9z"/>
<path class="st0" d="M58.6,34.5c0,0-3.4-9.9-16.4-14.5H10c0,0-2.2,1-1.8,2.9h31.2c0,0,9,1.2,15.7,13.2c0,0,2.3,0.4,2.5,2.7
	c0,0,1.9,0.5,3.3-2.9C60.9,36,61.9,33.9,58.6,34.5z"/>
<path class="st1" d="M45.1,44.2l12.5,84.7l6.7,37.7c0,0,1.4,19.8,20.1,21.4h154c0,0,6.6-3.6,0.8-9.3l-4.8-0.2l-149.7,0
	c0,0-7.6,1.7-8.7-7.5l-16.3-95l-5.4-34.4C54.3,41.7,47.9,44.1,45.1,44.2z"/>
<path class="st1" d="M247,209.1H76c0,0-16.6-11.1,2.1-22.6c0,0-5-1.5-7.8-5.6c0,0-11.6,9-11.4,18.2c0,0-0.3,15.9,16.3,18.7h53.1
	l118.7,0.5C247,218.3,254.5,213.9,247,209.1z"/>
<path class="st1" d="M257.6,53.3c0,3.6-3,6.4-6.8,6.4H64.4c-3.8,0-6.8-2.9-6.8-6.4l0,0c0-3.6,3-6.4,6.8-6.4h186.4
	C254.6,46.9,257.6,49.8,257.6,53.3L257.6,53.3z"/>
<path class="st1" d="M233.7,242.2c0,10.7-8.6,19.3-19.3,19.3c-10.7,0-19.3-8.6-19.3-19.3c0-10.7,8.7-19.3,19.3-19.3
	C225,222.8,233.7,231.5,233.7,242.2z M214.3,230.5c-6.5,0-11.7,5.2-11.7,11.7c0,6.5,5.2,11.7,11.7,11.7c6.5,0,11.7-5.2,11.7-11.7
	C226,235.7,220.8,230.5,214.3,230.5z"/>
<path class="st1" d="M122.4,242.2c0,10.7-8.7,19.3-19.3,19.3c-10.7,0-19.3-8.6-19.3-19.3c0-10.7,8.7-19.3,19.3-19.3
	C113.8,222.8,122.4,231.5,122.4,242.2z M103.1,230.5c-6.5,0-11.7,5.2-11.7,11.7c0,6.5,5.2,11.7,11.7,11.7s11.7-5.2,11.7-11.7
	C114.8,235.7,109.5,230.5,103.1,230.5z"/>
<path class="st0" d="M255,64.5l-16.4,109.8c0,0-0.2,2.7-4.8,4.3l-149.1,0c0,0-6.9,1-8.1-4.7L59.9,67.2l2.2-3.7c0,0,1.4,1,3.6,1H255z
	 M72.4,72.3l2.1,12.8h20.1l-2.3-15.5H78h-2.7C73.6,69.6,72.4,72.3,72.4,72.3z M75.7,96.1l2.1,12.8h20.1l-2.3-15.5H81.2h-2.7
	C76.8,93.5,75.7,96.1,75.7,96.1z M79.6,124l2.1,14.2h20.1l-2.3-17.2H85.2h-2.7C80.8,121.1,79.6,124,79.6,124z M83.5,149l2.1,17.2
	h20.1l-2.3-20.9H89.1h-2.7C84.7,145.4,83.5,149,83.5,149z M99.5,69.6l2.3,15.5h21.7V69.6H99.5z M101.8,93.5l2.3,15.5h21.7V93.5
	H101.8z M104.6,121.1l2.3,17.2h21.7v-17.2H104.6z M110.2,145.4l1.7,20.9h16.6v-20.9H110.2z M130.6,69.6v15.5h22.8V69.6H130.6z
	 M161.2,69.6v15.5H184V69.6H161.2z M130.7,93.5v15.5h22.8V93.5H130.7z M160.1,93.5v15.5h22.8V93.5H160.1z M133.1,121.9v15.5h20.4
	v-15.5H133.1z M133.9,145.4v20.9h20.4v-20.9H133.9z M160.1,121.9v15.5h20.7v-15.5H160.1z M161.2,145.4v20.9h17.5v-20.9H161.2z
	 M191.4,69.6L190,85.1h21.8l3.1-15.5H191.4z M190,93.5l-1.3,15.5h20.1l2.9-15.5H190z M188,121.1l-1.2,17.2h17.5l2.5-17.2H188z
	 M185.9,145.4l-1.1,21.3h16.6l2.4-21.3H185.9z M221.1,69.6l-1.8,15.5h19.6l2.1-13.5c0,0-0.7-1.9-2.9-1.9H221.1z M217.3,93.5
	l-1.8,15.5h19.6l2.1-13.5c0,0-0.7-1.9-2.9-1.9H217.3z M213.5,121.1l-1.8,17.2h19.6l2.1-15c0,0-0.7-2.1-2.9-2.1H213.5z M211.2,145.4
	l-1.8,20.9H229l2.2-18.3c0,0-0.7-2.5-2.9-2.6H211.2z"/>
<path class="st1" d="M258.9,58c0,3.6-3,6.4-6.8,6.4H65.7c-3.8,0-6.8-2.9-6.8-6.4l0,0c0-3.6,3-6.4,6.8-6.4h186.4
	C255.9,51.6,258.9,54.5,258.9,58L258.9,58z"/>
<path class="st1" d="M88.2,219.9l12.1,26.4c0,0,3.1,2.7,6.9,0c0,0,2.5-8.9,3-25.1v-1.2H88.2z"/>
<path class="st1" d="M200.7,221.2l11.7,25.3c0,0,3,2.6,6.7,0c0,0,2.4-8.5,2.9-24.1v-1.2H200.7z"/>
</svg>
