<?xml version="1.0" encoding="utf-8"?>
<!-- Generator: Adobe Illustrator 16.0.0, SVG Export Plug-In . SVG Version: 6.00 Build 0)  -->
<!DOCTYPE svg PUBLIC "-//W3C//DTD SVG 1.1//EN" "http://www.w3.org/Graphics/SVG/1.1/DTD/svg11.dtd">
<svg version="1.1" id="Layer_1" xmlns="http://www.w3.org/2000/svg" xmlns:xlink="http://www.w3.org/1999/xlink" x="0px" y="0px"
	 width="283.5px" height="283.5px" viewBox="0 0 283.5 283.5" style="enable-background:new 0 0 283.5 283.5;" xml:space="preserve"
	>
<style type="text/css">
<![CDATA[
	.st0{fill:#F7912A;}
]]>
</style>
<path class="st0" d="M7.5,221.3C7.8,170,67.3,169,67.3,169l-14.5,16H64l-7.3,9l27.5,27.3H7.5z"/>
<path class="st0" d="M75.7,155.2h-37v-35.8c0,0-1-56.7,37-62.7c0,0,39.3-12,59.7,25.7c0,0,4.8,10.5,4.8,22.7l1.6,50.2h-36.9
	c0,0,13.5-11.2,16.8-43.8c0,0-20.2-3.7-25-15c0,0-16,19.8-38.3,16C58.3,112.3,61,140.5,75.7,155.2z"/>
<path class="st0" d="M99,221.3c0,0-1-51.5,60-55.8l20.8,40l2.8-26.3l-4.5-4.4l22,0l-4.9,4.2l3,26.8l20.7-40.3
	c0,0,60.8,2.3,59.2,55.8H99z"/>
<path class="st0" d="M151.3,120.2c0,0,9.9,34.5,37.2,38.5c0,0,25,0,38.8-38.5c0,0,11.8-7.5,1-16.2c0,0,2.2-49.5-39.8-49.1
	c0,0-38.8-2.9-39.3,48.9C149.3,103.8,138.7,110.3,151.3,120.2z"/>
</svg>
