<?xml version="1.0" encoding="utf-8"?>
<!-- Generator: Adobe Illustrator 16.0.0, SVG Export Plug-In . SVG Version: 6.00 Build 0)  -->
<!DOCTYPE svg PUBLIC "-//W3C//DTD SVG 1.1//EN" "http://www.w3.org/Graphics/SVG/1.1/DTD/svg11.dtd">
<svg version="1.1" id="Layer_1" xmlns="http://www.w3.org/2000/svg" xmlns:xlink="http://www.w3.org/1999/xlink" x="0px" y="0px"
	 width="283.5px" height="283.5px" viewBox="0 0 283.5 283.5" style="enable-background:new 0 0 283.5 283.5;" xml:space="preserve"
	>
<style type="text/css">
<![CDATA[
	.st0{fill:#F6902B;}
]]>
</style>
<g>
	<path class="st0" d="M214,132.3c0,0,62.3-7.6,53.6,53.2c0,0-6.4,37.2-57.6,33.6c0,0,40-30.8,18.8-51.6c0,0-10.8-10.8-16,17.2
		c0,0-28,65.2-76.3,34.6c0,0-30.4-32.6-50.8-26.2c0,0-10.4,4.8,0,14.4c0,0,15.6-6.8,31.6,15.2l7.6,3.2c0,0-15.6,27-40.8,3.1
		c0,0-8.4-6.7-26.8-2.3c0,0-55.6-12-33.2-74.3c0,0,6.8-18.8,36.8-22.4c0,0,20.8-2.8,34.8,20.4c0,0,16.4,5.2,8.4-10
		c0,0-17.6-31-67.9-10.5c0,0-13.6,6.5-19.2,23.3c0,0-18.8-48.4,33.2-53.6h7.6c0,0,4-56.4,57.2-48.4c0,0-38.8,29.6-10.8,48.8
		c0,0,8.4,8,23.6,7.6c0,0,58.4,8,54.8,54.8c0,0-4,29.9-60-4.8c0,0-14.8-8.8-43.6,11.6c0,0-3.2,12.4,13.2,1.2c0,0,21.6-16,54,12.8
		c0,0,45.6,24,52.8-33.6c0,0,6.4-41.2-51.6-48.4c0,0-61.9-0.4-32.8-33.6c0,0,48-44.4,77.9-0.8c0,0,46.8-11.2,47.2,30.4
		c0,0,30.9,7.6,28.8,41.2c0,0-6,3.2-12.8-15.6c0,0-16-27.2-45.6-2.8C210,119.9,196.6,131.8,214,132.3z"/>
</g>
</svg>
